<?xml version="1.0" standalone="no"?>
<!DOCTYPE svg PUBLIC "-//W3C//DTD SVG 20010904//EN"
 "http://www.w3.org/TR/2001/REC-SVG-20010904/DTD/svg10.dtd">
<svg version="1.0" xmlns="http://www.w3.org/2000/svg"
 width="260.000000pt" height="260.000000pt" viewBox="0 0 260.000000 260.000000"
 preserveAspectRatio="xMidYMid meet">
<metadata>
Created by potrace 1.14, written by Peter Selinger 2001-2017
</metadata>
<g transform="translate(0.000000,260.000000) scale(0.100000,-0.100000)"
fill="#000000" stroke="none">
<path d="M1195 2539 c-50 -28 -178 -102 -285 -164 -107 -62 -211 -122 -230
-133 -19 -10 -73 -41 -120 -69 -47 -27 -154 -89 -238 -137 l-152 -89 2 -640 3
-641 135 -81 c308 -186 869 -520 926 -551 l60 -33 150 88 c82 48 302 179 489
291 187 112 372 222 410 245 l70 42 3 126 c1 70 0 127 -2 127 -3 0 -123 -71
-268 -158 -145 -87 -375 -225 -513 -307 -137 -81 -270 -161 -294 -176 l-43
-28 -37 19 c-20 10 -223 131 -451 268 l-415 249 0 519 0 519 70 41 c39 22 120
69 180 104 61 35 148 86 195 113 47 27 114 66 150 87 36 20 114 65 174 100 59
35 114 63 120 63 7 0 102 -52 212 -115 109 -64 253 -147 318 -185 65 -37 119
-73 119 -78 0 -11 -162 -112 -225 -141 l-37 -16 -78 45 c-88 50 -115 66 -228
130 -76 43 -81 45 -108 31 -99 -52 -514 -298 -525 -312 -18 -23 -11 -167 9
-187 8 -7 46 -32 86 -54 194 -110 717 -413 727 -421 4 -5 -9 -19 -30 -33 -87
-54 -171 -105 -200 -122 l-31 -18 -196 117 -196 117 -83 -46 c-118 -66 -125
-72 -108 -89 16 -14 529 -322 566 -338 19 -9 56 10 270 138 137 82 254 151
259 153 6 2 19 12 30 22 18 16 19 27 15 101 l-5 83 -125 72 c-144 83 -292 168
-335 193 -16 10 -75 43 -130 75 -55 32 -127 73 -160 92 -98 56 -98 54 -3 110
142 85 176 103 192 103 9 0 97 -47 196 -105 100 -58 187 -105 195 -105 8 0
117 59 242 131 126 72 244 140 263 151 142 81 191 111 195 118 5 8 -68 53
-490 295 -126 73 -313 180 -413 239 -101 58 -185 106 -186 106 -1 0 -42 -23
-91 -51z"/>
</g>
</svg>
