<?xml version="1.0" standalone="no"?>
<!DOCTYPE svg PUBLIC "-//W3C//DTD SVG 20010904//EN"
 "http://www.w3.org/TR/2001/REC-SVG-20010904/DTD/svg10.dtd">
<svg version="1.0" xmlns="http://www.w3.org/2000/svg"
 width="260.000000pt" height="260.000000pt" viewBox="0 0 260.000000 260.000000"
 preserveAspectRatio="xMidYMid meet">
<metadata>
Created by potrace 1.14, written by Peter Selinger 2001-2017
</metadata>
<g transform="translate(0.000000,260.000000) scale(0.100000,-0.100000)"
fill="#000000" stroke="none">
<path d="M1040 2454 c-129 -75 -275 -159 -325 -188 -49 -29 -187 -108 -305
-176 -118 -68 -221 -129 -229 -136 -12 -11 -14 -112 -14 -649 0 -349 2 -637 4
-639 5 -5 532 -322 574 -345 17 -9 138 -81 270 -160 132 -79 250 -148 261
-153 19 -9 76 22 395 212 688 410 738 441 746 453 11 16 11 247 0 247 -4 0
-205 -118 -445 -261 -240 -144 -450 -270 -467 -279 -16 -9 -71 -42 -121 -72
l-91 -56 -451 271 -452 270 0 512 0 513 33 20 c17 11 48 29 67 40 36 20 215
123 575 331 115 66 214 121 220 121 6 0 62 -30 125 -66 439 -253 529 -307 525
-314 -5 -8 -249 -150 -259 -150 -3 0 -92 50 -196 110 -104 61 -193 110 -196
110 -11 0 -549 -313 -556 -324 -4 -6 -8 -50 -8 -97 0 -102 -30 -74 248 -233
108 -62 253 -145 321 -184 69 -40 126 -72 128 -72 3 0 23 -13 46 -28 23 -15
54 -34 70 -42 15 -7 24 -17 20 -21 -5 -5 -60 -39 -124 -77 -64 -38 -120 -72
-126 -75 -6 -4 -97 45 -203 108 -105 63 -196 115 -201 115 -8 0 -40 -18 -104
-57 -11 -7 -39 -22 -62 -34 -24 -13 -43 -26 -43 -30 0 -7 576 -355 597 -361
11 -3 535 306 557 328 10 10 14 101 7 170 -1 5 -18 19 -38 30 -36 19 -321 184
-518 299 -49 29 -135 79 -189 110 -74 43 -96 61 -85 67 198 118 251 148 262
148 6 0 48 -21 92 -46 44 -26 96 -55 115 -66 19 -11 69 -40 111 -64 l76 -44
264 153 c145 84 303 175 351 202 49 28 88 56 88 63 0 6 -4 12 -10 12 -5 0 -62
32 -126 70 -65 39 -119 70 -121 70 -1 0 -32 18 -68 40 -36 22 -67 40 -69 40
-2 0 -133 76 -292 168 -375 218 -400 232 -410 232 -5 0 -115 -61 -244 -136z"/>
</g>
</svg>
